<svg version="1.1" xmlns="http://www.w3.org/2000/svg" xmlns:xlink="http://www.w3.org/1999/xlink" viewBox="0 0 200 200">
<g>
	<path class="cart-svg" fill="#0D9CD8" d="M197.5,7.1c-0.8-3.3-4.1-5.3-7.4-4.4l-24.4,6.1c-2.4,0.6-4.2,2.5-4.5,5L158,33.3L7.7,51.3
		c-0.1,0-0.2,0.1-0.3,0.1c-0.1,0-0.3,0-0.4,0c-0.3,0.1-0.6,0.3-0.9,0.4c-0.3,0.1-0.7,0.3-1,0.5c-0.4,0.3-0.8,0.7-1.1,1.1
		c-0.2,0.2-0.4,0.3-0.5,0.5c0,0,0,0.1-0.1,0.2c-0.3,0.5-0.5,1.1-0.7,1.7c-0.1,0.2-0.2,0.4-0.2,0.6c-0.1,0.8-0.1,1.7,0.1,2.5
		L20.8,132l6.1,24.4c0,0.2,0.2,0.3,0.2,0.5c0.1,0.3,0.2,0.6,0.4,0.8c0.2,0.4,0.5,0.8,0.7,1.1c0.2,0.2,0.4,0.4,0.6,0.6
		c0.4,0.3,0.8,0.6,1.2,0.8c0.2,0.1,0.4,0.3,0.7,0.4c0.7,0.3,1.4,0.4,2.2,0.4H161c3.4,0,6.1-2.7,6.1-6.1c0-3.4-2.7-6.1-6.1-6.1H37.6
		l-3-12.2h114.3c0.8,0,1.5-0.1,2.1-0.4c0.3-0.1,0.5-0.3,0.7-0.4c0.4-0.2,0.8-0.4,1.1-0.7c0.2-0.2,0.4-0.5,0.6-0.7
		c0.3-0.3,0.5-0.6,0.7-0.9c0.2-0.3,0.2-0.7,0.4-1c0.1-0.3,0.3-0.6,0.3-1l0-0.1v0v0l17.7-111.7l20.5-5.1
		C196.3,13.7,198.3,10.4,197.5,7.1z M31.5,124.4L16,62.6L35,60.3l9.2,64.1H31.5z M56.4,124.4l-9.4-65.6l19-2.3l3.1,67.9H56.4z
		 M94.2,124.4H81.4l-3.2-69.3l19-2.3L94.2,124.4z M119,124.4h-12.6l3.2-73.1l18.9-2.3L119,124.4z M143.5,124.4h-12.2l9.6-76.8
		l13-1.6L143.5,124.4z M57.3,173.2c-6.7,0-12.2,5.5-12.2,12.2s5.5,12.2,12.2,12.2s12.2-5.5,12.2-12.2
		C69.5,178.6,64,173.2,57.3,173.2z M136.6,173.2c-6.7,0-12.2,5.5-12.2,12.2s5.5,12.2,12.2,12.2c6.7,0,12.2-5.5,12.2-12.2
		C148.8,178.6,143.3,173.2,136.6,173.2z"/>
</g>
</svg>
