<svg version="1.1" xmlns="http://www.w3.org/2000/svg" xmlns:xlink="http://www.w3.org/1999/xlink" viewBox="0 0 300 300">
<g>
	<g>
		<path fill="#66a843" class="panel2" d="M68.4,75.4c0,0,20-31.1,47.4-38.5c0,0,24.2-1.6,51,20c0,0-10,50-13.2,54.2c0,0-58.4,13.7-61.6,15.3
			C92.1,126.5,73.7,100.7,68.4,75.4z"/>
		<path fill="#66a843" class="panel2" d="M223.2,20.6v29c0,0,33.1,24.8,40.5,46.9l26.3,2.1C290,98.6,274.7,48.5,223.2,20.6z"/>
		<path fill="#66a843" class="panel2" d="M197.9,158.6l53.7-6.9c0,0,12.6,22.1,12.6,54.2c0,0-23.7,32.1-44.2,40l-43.1-25.8L197.9,158.6z"/>
		<path fill="#66a843" class="panel2" d="M71.1,185.5c0,0,23.7,33.2,41.6,47.4l-15.3,36.3c0,0-32.1-3.7-47.9-16.9c0,0-18.4-22.1-18.4-54.2
			L71.1,185.5z"/>
		<path fill="#66a843" class="panel2" d="M-0.5,146.5h9c0,0,2.6-36.3,18.9-59V63.8C27.4,63.8,3.7,91.7-0.5,146.5z"/>
		<path fill="#66a843" class="panel2" d="M141.2,299.5l0.4-3.5c0,0,47.9-6.3,64.2-15.8l6.6,5.8C212.4,286,182.8,302,141.2,299.5z"/>
		<path fill="#66a843" class="panel2" d="M100,9l14.7,0.5l13.4-7C128.2,2.6,113.2,4.3,100,9z"/>
		<g>
			<path fill="#66a843" class="panel2" d="M165.5,58.3l-0.3-1.5c1.8-0.4,43.4-8.6,59.6-8.1l0,1.6C208.6,49.6,165.9,58.2,165.5,58.3z"/>
		</g>
		<g>
			<path fill="#66a843" class="panel2" d="M252,153l-1.2-1c10.2-11.8,12.4-55.6,12.4-56l1.6,0.1C264.7,97.9,262.5,140.8,252,153z"/>
		</g>
		<g>
			<polygon fill="#66a843" class="panel2" points="287.4,208.7 263.3,206.8 263.5,205.2 288.1,207 			"/>
		</g>
		<g>
			<polygon fill="#66a843" class="panel2" points="198.3,160.5 152.5,110.7 153.7,109.7 199.4,159.4 			"/>
		</g>
		<g>
			<path fill="#66a843" class="panel2" d="M206,282.2l-1.2-1.1c4.6-5.1,14.9-36.2,15-36.5l1.5,0.5C220.9,246.5,210.8,276.9,206,282.2z"/>
		</g>
		<g>
			<path fill="#66a843" class="panel2" d="M110.6,234.2l-0.2-1.6c0.6-0.1,56-7.7,66.8-13.4l0.7,1.4C166.9,226.5,112.9,233.9,110.6,234.2z"/>
		</g>
		<g>
			<path fill="#66a843" class="panel2" d="M71.6,187.3l-1.5-0.4c0.6-2.2,14.8-53.2,21.7-61.7l1.2,1C86.3,134.3,71.7,186.7,71.6,187.3z"/>
		</g>
		<g>
			<path fill="#66a843" class="panel2" d="M142.6,297.4c-26.2-6.8-46.4-28.5-46.6-28.7l1.2-1.1c0.2,0.2,20,21.5,45.8,28.2L142.6,297.4z"/>
		</g>
		<g>
			<path fill="#66a843" class="panel2" d="M31.2,199.1C6,174.3,6.7,145.6,6.7,145.3l1.6,0c0,0.3-0.7,28.3,24,52.5L31.2,199.1z"/>
		</g>
		<g>
			<path fill="#66a843" class="panel2" d="M26.5,88.9l-0.9-1.3c0.2-0.1,18.9-14,45.7-13l-0.1,1.6C44.9,75.2,26.7,88.8,26.5,88.9z"/>
		</g>
		<g>
			<polygon fill="#66a843" class="panel2" points="115.2,37.8 114,8.3 115.6,8.3 116.8,37.7 			"/>
		</g>
		<g>
			<polygon fill="#66a843" class="panel2" points="45.3,257.1 44.2,256 49.9,250.8 51,252 			"/>
		</g>
	</g>
	<g>
		<path fill="#66a843" class="panel2" d="M141.2,299.4L141.2,299.4c41.7,2.6,71.2-13.4,71.2-13.4l0,0c-19,8.8-40.2,13.7-62.5,13.7
			C147,299.7,144.1,299.6,141.2,299.4z"/>
		<path fill="#66a843" class="panel2" d="M115.6,8.3l0,0.8l12.6-6.5c0,0-15,1.7-28.2,6.4l14,0.5l0-1.2L115.6,8.3z"/>
		<path fill="#66a843" class="panel2" d="M165.5,58.3c0,0,0.4-0.1,1.2-0.2c0.1-0.7,0.2-1.1,0.2-1.1c-0.2-0.2-0.4-0.3-0.6-0.5
			c-0.6,0.1-0.9,0.2-1.1,0.2L165.5,58.3z"/>
		<path fill="#66a843" class="panel2" d="M223.9,50.2c0.3,0,0.5,0,0.8,0l0-1.6c-0.5,0-1,0-1.6,0v1C223.2,49.6,223.5,49.8,223.9,50.2z"/>
		<path fill="#66a843" class="panel2" d="M264.8,96.5c0-0.2,0-0.4,0-0.5l-1.3-0.1c0.1,0.2,0.1,0.3,0.2,0.5L264.8,96.5z"/>
		<path fill="#66a843" class="panel2" d="M252,153c0.1-0.1,0.1-0.1,0.2-0.2c-0.4-0.7-0.6-1-0.6-1l-0.7,0.1c0,0-0.1,0.1-0.1,0.1L252,153z"/>
		<path fill="#66a843" class="panel2" d="M287.3,208.7L287.3,208.7l0.8-1.8l0,0C287.8,207.5,287.6,208.2,287.3,208.7z"/>
		<path fill="#66a843" class="panel2" d="M154.2,110.3l-0.5-0.6l-1.2,1.1l0.5,0.6c0.4-0.1,0.6-0.2,0.6-0.2C153.8,111,154,110.7,154.2,110.3z"/>
		<polygon fill="#66a843" class="panel2" points="199.4,159.4 198.6,158.5 197.9,158.6 197.5,159.7 198.3,160.5 		"/>
		<path fill="#66a843" class="panel2" d="M177.2,219.3C177.2,219.3,177.2,219.3,177.2,219.3l-0.3,0.9l1,0.6c0,0,0.1,0,0.1-0.1L177.2,219.3z"/>
		<path fill="#66a843" class="panel2" d="M112.1,232.4c-1.1,0.2-1.7,0.2-1.8,0.3l0.2,1.6c0.2,0,0.7-0.1,1.6-0.2l0.5-1.2
			C112.5,232.7,112.3,232.6,112.1,232.4z"/>
		<path fill="#66a843" class="panel2" d="M92.9,126.2C92.9,126.2,92.9,126.1,92.9,126.2l-1.2-1.1c-0.1,0.1-0.2,0.2-0.3,0.3c0.4,0.6,0.7,1,0.7,1
			C92.3,126.4,92.5,126.3,92.9,126.2z"/>
		<path fill="#66a843" class="panel2" d="M70.4,185.7c-0.2,0.6-0.3,1-0.3,1.2l1.5,0.4c0,0,0.1-0.3,0.2-0.8c-0.4-0.6-0.7-1-0.7-1L70.4,185.7z"/>
		<path fill="#66a843" class="panel2" d="M97.8,268.3c-0.3-0.3-0.5-0.6-0.6-0.6l-1.2,1.1c0,0,0.1,0.1,0.3,0.3c0.6,0.1,1,0.1,1,0.1L97.8,268.3z"/>
		<path fill="#66a843" class="panel2" d="M32.3,197.9c-0.1-0.1-0.1-0.1-0.2-0.2l-1,0.3c0,0.3,0,0.6,0,0.9c0,0,0,0,0.1,0.1L32.3,197.9z"/>
		<path fill="#66a843" class="panel2" d="M8.2,145.4l-1.6,0c0,0,0,0.5,0,1.1h1.6C8.2,145.8,8.2,145.4,8.2,145.4z"/>
		<path fill="#66a843" class="panel2" d="M68.6,76.2c0.8,0,1.7,0,2.5,0l0.1-1.6c-0.8,0-1.5,0-2.3,0c-0.3,0.4-0.5,0.7-0.5,0.7
			C68.5,75.7,68.6,75.9,68.6,76.2z"/>
		<path fill="#66a843" class="panel2" d="M26.4,88.9c0.3-0.5,0.6-0.9,1-1.4v-1.1c-1.2,0.8-1.8,1.2-1.9,1.3L26.4,88.9z"/>
		<path fill="#66a843" class="panel2" d="M116.8,37.7l0-0.8c-0.6,0-0.9,0-0.9,0c-0.2,0.1-0.4,0.1-0.6,0.2l0,0.6L116.8,37.7z"/>
		<polygon fill="#66a843" class="panel2" points="115.6,9.1 115.6,8.3 114,8.3 114.1,9.5 114.8,9.5 		"/>
		<path fill="#66a843" class="panel2" d="M49.9,250.8l-0.9,0.8c0.3,0.4,0.5,0.6,0.5,0.6c0.2,0.2,0.4,0.3,0.6,0.5L51,252L49.9,250.8z"/>
	</g>
</g>
</svg>
